<svg width="404" height="34" fill="none" xmlns="http://www.w3.org/2000/svg"><path opacity=".2" fill-rule="evenodd" clip-rule="evenodd" d="M16 13H6l-6 8h42l6-8H16z" fill="#A7D100"/><path opacity=".5" fill-rule="evenodd" clip-rule="evenodd" d="M72 13H62l-6 8h42l6-8H72z" fill="#A7D100"/><path fill-rule="evenodd" clip-rule="evenodd" d="M128 13h-10l-6 8h42l6-8h-32zm132 0h-10l-6 8h42l6-8h-32z" fill="#A7D100"/><path opacity=".5" fill-rule="evenodd" clip-rule="evenodd" d="M316 13h-10l-6 8h42l6-8h-32z" fill="#A7D100"/><path opacity=".2" fill-rule="evenodd" clip-rule="evenodd" d="M372 13h-10l-6 8h42l6-8h-32z" fill="#A7D100"/><path d="M202.012.677a22.357 22.357 0 0016.335 16.335 20.7 20.7 0 00-16.335 16.335 22.839 22.839 0 00-16.334-16.335A21.076 21.076 0 00202.012.677z" fill="#A7D100"/></svg>